<mxfile host="app.diagrams.net" modified="2024-06-20T09:30:04.854Z" agent="Mozilla/5.0 (Windows NT 10.0; Win64; x64) AppleWebKit/537.36 (KHTML, like Gecko) Chrome/126.0.0.0 Safari/537.36" version="24.5.5" etag="riecGzbAYrzuadXRCK_y" type="github">
  <diagram name="第 1 页" id="BaPmZCbuq6ZCnEywYhKB">
    <mxGraphModel>
      <root>
        <mxCell id="0" />
        <mxCell id="1" parent="0" />
      </root>
    </mxGraphModel>
  </diagram>
</mxfile>
